<svg id="Layer_1" data-name="Layer 1" xmlns="http://www.w3.org/2000/svg" viewBox="0 0 4000 3742.86"><defs><style>.cls-1,.cls-7{fill:#fff;}.cls-2{fill:#49437b;}.cls-3{fill:#72d5f7;}.cls-4{fill:#968bff;}.cls-5{fill:#ffaf87;}.cls-6{fill:#6ad4ce;}.cls-7{font-size:106.08px;font-family:MyriadPro-Regular, Myriad Pro;}.cls-8{letter-spacing:0em;}.cls-9{fill:#d1f1ff;}.cls-10{fill:#3ec2bc;}.cls-11{fill:#7bdbd6;}.cls-12{fill:#4cc9c2;}.cls-13{fill:#baecff;}.cls-14{fill:#82e8e2;}.cls-15{fill:#d9fcff;}.cls-16{fill:#d4fcff;}.cls-17{fill:#3a3673;}.cls-18{fill:#8c6bf8;}.cls-19{fill:#eef1fa;}.cls-20{fill:#464181;}.cls-21{fill:#464180;}.cls-22{fill:#d0daf7;}.cls-23{fill:#2a2751;}.cls-24{fill:#ffa09a;}.cls-25{fill:#7050dc;}.cls-26{fill:#b49dff;}</style></defs><title>programador</title><rect class="cls-1" y="742.86" width="4000" height="3000"/><rect class="cls-2" x="262.83" y="3377.86" width="3157.34" height="20"/><path class="cls-3" d="M2920.15,732.84v-212c0-29.15,32.95-53,73.23-53h395.46c40.28,0,73.24,23.85,73.24,53v106c0,29.15-33,53-73.24,53H3110.55c-40.27,0-99.6,11.92-131.82,26.5Z" transform="translate(0 742.86)"/><path class="cls-4" d="M3057.65,1402.84v-200a50.15,50.15,0,0,1,50-50h465a50.15,50.15,0,0,1,50,50v100a50.15,50.15,0,0,1-50,50h-385c-27.5,0-68,11.25-90,25Z" transform="translate(0 742.86)"/><path class="cls-5" d="M3280.15,1030.34v-200a50.15,50.15,0,0,1,50-50h360a50.15,50.15,0,0,1,50,50v100a50.15,50.15,0,0,1-50,50h-280c-27.5,0-68,11.25-90,25Z" transform="translate(0 742.86)"/><path class="cls-6" d="M2622.65,592.84v-200a50.15,50.15,0,0,0-50-50h-215a50.15,50.15,0,0,0-50,50v100a50.15,50.15,0,0,0,50,50h120c27.5,0,69.9,10.48,94.24,23.28Z" transform="translate(0 742.86)"/><path class="cls-1" d="M3388.55,913.51a4.16,4.16,0,0,1-1.25-3.06V851.51a4.32,4.32,0,0,1,1.25-3.1,4,4,0,0,1,3-1.29,4.42,4.42,0,0,1,4.4,4.39v25.41h36.19V851.51a4.32,4.32,0,0,1,1.25-3.1,4,4,0,0,1,3-1.29,4.4,4.4,0,0,1,4.39,4.39v58.94a4.09,4.09,0,0,1-1.29,3.06,4.32,4.32,0,0,1-3.1,1.24,4.25,4.25,0,0,1-4.3-4.3V885H3396v25.41a4.06,4.06,0,0,1-1.3,3.06,4.34,4.34,0,0,1-3.1,1.24A4.16,4.16,0,0,1,3388.55,913.51Z" transform="translate(0 742.86)"/><path class="cls-1" d="M3476.13,913.51a4.16,4.16,0,0,1-1.24-3.06V855.72h-19.48a3.93,3.93,0,0,1-4-4,4.08,4.08,0,0,1,1.15-2.91,3.84,3.84,0,0,1,2.87-1.19H3503a4.08,4.08,0,0,1,4.11,4.1,3.8,3.8,0,0,1-1.2,2.87,4,4,0,0,1-2.91,1.15h-19.39v54.73a4.09,4.09,0,0,1-1.29,3.06,4.34,4.34,0,0,1-3.1,1.24A4.19,4.19,0,0,1,3476.13,913.51Z" transform="translate(0 742.86)"/><path class="cls-1" d="M3518.82,913.51a4.16,4.16,0,0,1-1.24-3.06v-57a6.13,6.13,0,0,1,1.81-4.44,5.94,5.94,0,0,1,4.4-1.86h3.15a5.79,5.79,0,0,1,3.48,1.15,7,7,0,0,1,2.35,2.86l21.68,54.07,21.68-54.07a7,7,0,0,1,2.34-2.86,5.82,5.82,0,0,1,3.49-1.15h3.15a5.9,5.9,0,0,1,4.39,1.86,6.14,6.14,0,0,1,1.82,4.44v57a4.24,4.24,0,0,1-4.3,4.3,4.34,4.34,0,0,1-3.1-1.24,4.09,4.09,0,0,1-1.29-3.06V856.2l-22.07,54.53a6.46,6.46,0,0,1-2.43,2.92,6.71,6.71,0,0,1-7.36,0,6.48,6.48,0,0,1-2.44-2.92l-22.06-54.53v54.25a4.09,4.09,0,0,1-1.29,3.06,4.34,4.34,0,0,1-3.1,1.24A4.19,4.19,0,0,1,3518.82,913.51Z" transform="translate(0 742.86)"/><path class="cls-1" d="M3611.61,912.5a5.79,5.79,0,0,1-1.77-4.25V851.51a4.32,4.32,0,0,1,1.25-3.1,4.06,4.06,0,0,1,3.06-1.29,4.4,4.4,0,0,1,4.39,4.39v54.07h31.23a4.39,4.39,0,0,1,4.4,4.39,4.09,4.09,0,0,1-1.29,3.06,4.36,4.36,0,0,1-3.11,1.24h-33.91A5.8,5.8,0,0,1,3611.61,912.5Z" transform="translate(0 742.86)"/><path class="cls-1" d="M3113.93,1278.23a3.91,3.91,0,0,1-2.1-3.54,4.09,4.09,0,0,1,1-2.72,3.26,3.26,0,0,1,2.63-1.19,3.75,3.75,0,0,1,1.72.38,20.38,20.38,0,0,0,8.88,2.1,11.85,11.85,0,0,0,8.36-3q3.2-3,3.2-11.18v-41.36a4.31,4.31,0,0,1,1.24-3.1,4,4,0,0,1,3-1.29,4.4,4.4,0,0,1,4.4,4.39v40.79q0,12.51-5.59,17.72a19.85,19.85,0,0,1-14.09,5.2A25.34,25.34,0,0,1,3113.93,1278.23Z" transform="translate(0 742.86)"/><path class="cls-1" d="M3167.27,1279.76a13.62,13.62,0,0,1-5.68-5,13.84,13.84,0,0,1-2.1-7.6,13.4,13.4,0,0,1,5.58-11.27q5.59-4.2,16.38-4.2H3193v-.76q0-6.32-3.1-9.07c-2.07-1.85-5.31-2.78-9.69-2.78a32,32,0,0,0-6.46.58,52.81,52.81,0,0,0-6.25,1.72,5.77,5.77,0,0,1-1.24.19,3.4,3.4,0,0,1-2.49-1,3.51,3.51,0,0,1-1.05-2.58,3.68,3.68,0,0,1,2.49-3.63,42,42,0,0,1,16.52-3.44,21.54,21.54,0,0,1,11.13,2.68,16.89,16.89,0,0,1,6.69,6.92,20.17,20.17,0,0,1,2.14,9.22v27a4.11,4.11,0,0,1-1.28,3.06,4.36,4.36,0,0,1-3.11,1.24,4.24,4.24,0,0,1-4.3-4.3v-2.49q-7.07,7.26-18,7.26A17.83,17.83,0,0,1,3167.27,1279.76Zm19.15-8a22.51,22.51,0,0,0,6.59-5.11v-8H3182.6q-14.43,0-14.42,7.55a7.06,7.06,0,0,0,2.34,5.54q2.34,2.1,7.78,2.1A17.26,17.26,0,0,0,3186.42,1271.78Z" transform="translate(0 742.86)"/><path class="cls-1" d="M3229.59,1280a6,6,0,0,1-2.1-2.53l-16.62-39.74a5.45,5.45,0,0,1-.47-2,4.29,4.29,0,0,1,1.24-3.1,4.09,4.09,0,0,1,3.06-1.29,4.23,4.23,0,0,1,2.34.72,4.12,4.12,0,0,1,1.57,1.76l14.62,37.06,14.61-37.06a4.12,4.12,0,0,1,1.57-1.76,4.24,4.24,0,0,1,2.35-.72,4.08,4.08,0,0,1,3,1.29,4.29,4.29,0,0,1,1.24,3.1,5.45,5.45,0,0,1-.47,2L3239,1277.46a5.94,5.94,0,0,1-2.09,2.53,5.39,5.39,0,0,1-3.15,1h-1A5.4,5.4,0,0,1,3229.59,1280Z" transform="translate(0 742.86)"/><path class="cls-1" d="M3270.14,1279.76a13.62,13.62,0,0,1-5.68-5,13.84,13.84,0,0,1-2.1-7.6,13.4,13.4,0,0,1,5.58-11.27q5.59-4.2,16.39-4.2h11.55v-.76q0-6.32-3.1-9.07t-9.69-2.78a31.91,31.91,0,0,0-6.45.58,52.41,52.41,0,0,0-6.26,1.72,5.77,5.77,0,0,1-1.24.19,3.36,3.36,0,0,1-2.48-1,3.47,3.47,0,0,1-1-2.58,3.67,3.67,0,0,1,2.48-3.63,42,42,0,0,1,16.52-3.44,21.51,21.51,0,0,1,11.13,2.68,16.89,16.89,0,0,1,6.69,6.92,20.18,20.18,0,0,1,2.15,9.22v27a4.09,4.09,0,0,1-1.29,3.06,4.36,4.36,0,0,1-3.11,1.24,4.24,4.24,0,0,1-4.3-4.3v-2.49q-7.07,7.26-18,7.26A17.83,17.83,0,0,1,3270.14,1279.76Zm19.15-8a22.51,22.51,0,0,0,6.59-5.11v-8h-10.41q-14.43,0-14.42,7.55a7.09,7.09,0,0,0,2.34,5.54q2.34,2.1,7.78,2.1A17.26,17.26,0,0,0,3289.29,1271.78Z" transform="translate(0 742.86)"/><path class="cls-1" d="M3317.57,1277.17a3.63,3.63,0,0,1-1.63-3.15,3.82,3.82,0,0,1,1-2.67,3.5,3.5,0,0,1,2.68-1.15,4.13,4.13,0,0,1,1.72.39,39.46,39.46,0,0,0,6.11,2.1,28.92,28.92,0,0,0,6.88.76q10.6,0,10.6-6.78a3.62,3.62,0,0,0-2.44-3.35,49.83,49.83,0,0,0-8-2.57,74.22,74.22,0,0,1-9.32-2.77,16.45,16.45,0,0,1-6.3-4.35,11,11,0,0,1-2.62-7.69,13.76,13.76,0,0,1,4.82-10.89c3.21-2.8,7.82-4.2,13.8-4.2a39.88,39.88,0,0,1,13.85,2.39,3.53,3.53,0,0,1,2,1.43,3.82,3.82,0,0,1,.72,2.19,3.74,3.74,0,0,1-1.1,2.68,3.6,3.6,0,0,1-2.72,1.15,5.2,5.2,0,0,1-1.24-.19,36.56,36.56,0,0,0-10.89-1.72q-5.16,0-8.07,1.86a5.57,5.57,0,0,0-2.92,4.82,4.44,4.44,0,0,0,2.68,4.21,38.27,38.27,0,0,0,8.31,2.58,79.55,79.55,0,0,1,9.17,2.81,15.24,15.24,0,0,1,6.06,4.35,11.78,11.78,0,0,1,2.53,7.93,12.61,12.61,0,0,1-4.82,10.12q-4.82,4-13.61,4A35.46,35.46,0,0,1,3317.57,1277.17Z" transform="translate(0 742.86)"/><path class="cls-1" d="M3374.87,1278.42a23.61,23.61,0,0,1-9.31-8.79,27.79,27.79,0,0,1,0-26.93,23.54,23.54,0,0,1,9.31-8.79,26.93,26.93,0,0,1,12.71-3.06,26.48,26.48,0,0,1,8.74,1.29,33.07,33.07,0,0,1,6.82,3.29,3.8,3.8,0,0,1,.82,6,3.37,3.37,0,0,1-2.53,1.19,4.34,4.34,0,0,1-2.1-.57,36.27,36.27,0,0,0-5.4-2.35,18.92,18.92,0,0,0-5.59-.71c-5.47,0-9.78,1.58-12.89,4.73s-4.68,7.31-4.68,12.46,1.55,9.31,4.68,12.47,7.42,4.72,12.89,4.72a18.92,18.92,0,0,0,5.59-.71,37.16,37.16,0,0,0,5.4-2.34,4.34,4.34,0,0,1,2.1-.57,3.34,3.34,0,0,1,2.53,1.19,3.79,3.79,0,0,1-.82,6,33.1,33.1,0,0,1-6.82,3.3,26.49,26.49,0,0,1-8.74,1.28A27,27,0,0,1,3374.87,1278.42Z" transform="translate(0 742.86)"/><path class="cls-1" d="M3417.19,1279.76a4.16,4.16,0,0,1-1.25-3.06v-41a4.3,4.3,0,0,1,1.25-3.1,4,4,0,0,1,3-1.29,4.4,4.4,0,0,1,4.39,4.39v4.11q6.69-9,15-9h.48a4,4,0,0,1,3,1.24,4.27,4.27,0,0,1,1.19,3.06,3.84,3.84,0,0,1-1.24,3,4.48,4.48,0,0,1-3.15,1.14h-.48a16.37,16.37,0,0,0-8.41,2.25,19.57,19.57,0,0,0-6.4,6.16v29a4.09,4.09,0,0,1-1.29,3.06,4.32,4.32,0,0,1-3.1,1.24A4.16,4.16,0,0,1,3417.19,1279.76Z" transform="translate(0 742.86)"/><path class="cls-1" d="M3453.19,1220.44a4.71,4.71,0,0,1-1.43-3.44v-.38a4.88,4.88,0,0,1,4.87-4.87h.58a4.9,4.9,0,0,1,4.87,4.87v.38a4.9,4.9,0,0,1-4.87,4.87h-.58A4.73,4.73,0,0,1,3453.19,1220.44Zm.58,59.32a4.16,4.16,0,0,1-1.25-3.06v-41a4.3,4.3,0,0,1,1.25-3.1,4.06,4.06,0,0,1,3.06-1.29,4.24,4.24,0,0,1,4.39,4.39v41a4.09,4.09,0,0,1-1.29,3.06,4.35,4.35,0,0,1-3.1,1.24A4.16,4.16,0,0,1,3453.77,1279.76Z" transform="translate(0 742.86)"/><path class="cls-1" d="M3477.55,1301.68a4.32,4.32,0,0,1-1.24-3.11v-62.94a4.24,4.24,0,0,1,4.3-4.3,4.29,4.29,0,0,1,3.1,1.24,4.09,4.09,0,0,1,1.29,3.06v2.48a22,22,0,0,1,16.33-7.26,22.39,22.39,0,0,1,11.23,3,22.71,22.71,0,0,1,8.59,8.79,29.33,29.33,0,0,1,0,27,22.75,22.75,0,0,1-8.59,8.78,22.39,22.39,0,0,1-11.23,3,22,22,0,0,1-16.33-7.26v24.36a4.24,4.24,0,0,1-4.39,4.39A4.11,4.11,0,0,1,3477.55,1301.68Zm33.91-32.81q4.3-4.5,4.3-12.71t-4.3-12.7q-4.3-4.5-11.37-4.49a18,18,0,0,0-8.26,2,23.51,23.51,0,0,0-6.83,5.2v20.06a23.72,23.72,0,0,0,6.83,5.21,18.09,18.09,0,0,0,8.26,1.95A15,15,0,0,0,3511.46,1268.87Z" transform="translate(0 742.86)"/><path class="cls-1" d="M3539.06,1268.87v-29.62h-6.78a1.78,1.78,0,0,1-1.81-1.81,2,2,0,0,1,.86-1.62l13-12.71a2.39,2.39,0,0,1,1.62-.85,1.69,1.69,0,0,1,1.29.57,1.91,1.91,0,0,1,.52,1.33v7.65h10.8a3.61,3.61,0,0,1,3.73,3.72,3.68,3.68,0,0,1-1.06,2.63,3.54,3.54,0,0,1-2.67,1.09h-10.8v28.85c0,2.49.59,4.06,1.77,4.73a8.91,8.91,0,0,0,4.45,1,13.28,13.28,0,0,0,3.81-.57l.81-.19a4.85,4.85,0,0,1,1.1-.1,3.39,3.39,0,0,1,2.39,1,3.26,3.26,0,0,1,1.06,2.44,3.63,3.63,0,0,1-2.2,3.35,18.81,18.81,0,0,1-7.93,1.71Q3539.06,1281.47,3539.06,1268.87Z" transform="translate(0 742.86)"/><path class="cls-1" d="M2392.93,473.57A29.87,29.87,0,0,1,2381,461.63a40.23,40.23,0,0,1,0-36.39,29.87,29.87,0,0,1,11.93-11.94,35.16,35.16,0,0,1,17.15-4.15,40.41,40.41,0,0,1,11.6,1.52,49.54,49.54,0,0,1,10.18,4.39,3.86,3.86,0,0,1,2.1,3.64,3.58,3.58,0,0,1-1.05,2.53,3.67,3.67,0,0,1-2.77,1.09,3.72,3.72,0,0,1-1.72-.38,43.83,43.83,0,0,0-8.22-3.34,33.93,33.93,0,0,0-9.26-1.15,27.17,27.17,0,0,0-14,3.39,21.75,21.75,0,0,0-8.69,9.27,31.86,31.86,0,0,0,0,26.65A21.73,21.73,0,0,0,2397,466a27.17,27.17,0,0,0,14,3.39,34,34,0,0,0,9.26-1.14,43.23,43.23,0,0,0,8.22-3.35,3.85,3.85,0,0,1,1.72-.38,3.76,3.76,0,0,1,2.77,1,3.51,3.51,0,0,1,1.05,2.58,3.85,3.85,0,0,1-2.1,3.63,49.59,49.59,0,0,1-10.18,4.4,40.76,40.76,0,0,1-11.6,1.52A35.16,35.16,0,0,1,2392.93,473.57Z" transform="translate(0 742.86)"/><path class="cls-1" d="M2445.32,473.14a4.33,4.33,0,0,1-1.91-1.58,4.08,4.08,0,0,1-.76-2.34,4,4,0,0,1,1.1-2.81,3.64,3.64,0,0,1,2.82-1.2,4.48,4.48,0,0,1,1.81.38,45.72,45.72,0,0,0,18.82,3.92q16.71,0,16.71-11a6.14,6.14,0,0,0-2.15-4.78,15.6,15.6,0,0,0-5.3-3q-3.15-1.1-9-2.63a110.7,110.7,0,0,1-12.52-3.87,21.81,21.81,0,0,1-8.21-5.58q-3.45-3.74-3.44-9.93a17.84,17.84,0,0,1,2.86-9.89,19.75,19.75,0,0,1,8.46-7.07,31.31,31.31,0,0,1,13.42-2.62,54.42,54.42,0,0,1,19,3.15,3.71,3.71,0,0,1,2.67,3.82,4.21,4.21,0,0,1-1,2.77,3.47,3.47,0,0,1-2.77,1.24,4.48,4.48,0,0,1-1.53-.38,46.67,46.67,0,0,0-15.38-2.58q-7.55,0-12.27,2.86a8.92,8.92,0,0,0-4.73,8,7.39,7.39,0,0,0,2.24,5.58,15.58,15.58,0,0,0,5.64,3.35,89.62,89.62,0,0,0,9.22,2.53,97.26,97.26,0,0,1,12.17,3.62,20,20,0,0,1,7.93,5.64q3.3,3.83,3.3,10.32a16,16,0,0,1-3.06,9.6,20.14,20.14,0,0,1-8.6,6.64,32.24,32.24,0,0,1-12.79,2.38A56.62,56.62,0,0,1,2445.32,473.14Z" transform="translate(0 742.86)"/><path class="cls-1" d="M2504.16,473.14a4.33,4.33,0,0,1-1.91-1.58,4.07,4.07,0,0,1,.34-5.15,3.64,3.64,0,0,1,2.82-1.2,4.48,4.48,0,0,1,1.81.38,45.71,45.71,0,0,0,18.81,3.92q16.72,0,16.72-11a6.14,6.14,0,0,0-2.15-4.78,15.6,15.6,0,0,0-5.3-3c-2.1-.73-5.1-1.61-9-2.63a111.1,111.1,0,0,1-12.51-3.87,21.81,21.81,0,0,1-8.21-5.58q-3.45-3.74-3.44-9.93a17.84,17.84,0,0,1,2.86-9.89,19.7,19.7,0,0,1,8.46-7.07,31.29,31.29,0,0,1,13.41-2.62,54.38,54.38,0,0,1,19,3.15,3.7,3.7,0,0,1,2.67,3.82,4.15,4.15,0,0,1-1.05,2.77,3.45,3.45,0,0,1-2.76,1.24,4.48,4.48,0,0,1-1.53-.38,46.67,46.67,0,0,0-15.38-2.58q-7.54,0-12.27,2.86a8.92,8.92,0,0,0-4.73,8,7.39,7.39,0,0,0,2.24,5.58,15.58,15.58,0,0,0,5.64,3.35,90,90,0,0,0,9.21,2.53,97.48,97.48,0,0,1,12.18,3.62,20.13,20.13,0,0,1,7.93,5.64q3.3,3.83,3.3,10.32a16,16,0,0,1-3.06,9.6,20.2,20.2,0,0,1-8.6,6.64,32.29,32.29,0,0,1-12.8,2.38A56.61,56.61,0,0,1,2504.16,473.14Z" transform="translate(0 742.86)"/><text class="cls-7" transform="translate(3011.75 1352.95) scale(1.22 1)"><tspan class="cls-8">G</tspan><tspan x="69.05" y="0">olang</tspan></text><text y="742.86"/><rect class="cls-9" x="487.8" y="1495.66" width="1829.95" height="1282.45" rx="50"/><path class="cls-10" d="M2317.75,802.8V850H487.8V802.8a50.15,50.15,0,0,1,50-50h1730A50.15,50.15,0,0,1,2317.75,802.8Z" transform="translate(0 742.86)"/><circle class="cls-9" cx="2243.75" cy="1543.28" r="19.58"/><circle class="cls-9" cx="2167.08" cy="1543.28" r="19.59"/><path class="cls-9" d="M1252.5,812.5h-720a10,10,0,0,1,0-20h720a10,10,0,0,1,0,20Z" transform="translate(0 742.86)"/><path class="cls-10" d="M630.55,954.43A34.63,34.63,0,1,1,602.13,900a34.15,34.15,0,0,1,16.23,4.08,26.72,26.72,0,0,0,12.19,50.35Z" transform="translate(0 742.86)"/><path class="cls-11" d="M880,933.75c0,10.31-11.25,18.75-25,18.75H725c-13.75,0-25-8.44-25-18.75S711.25,915,725,915H855C868.75,915,880,923.44,880,933.75Z" transform="translate(0 742.86)"/><path class="cls-11" d="M1132.5,933.75c0,10.31-11.25,18.75-25,18.75h-130c-13.75,0-25-8.44-25-18.75S963.75,915,977.5,915h130C1121.25,915,1132.5,923.44,1132.5,933.75Z" transform="translate(0 742.86)"/><path class="cls-11" d="M1385,933.75c0,10.31-11.25,18.75-25,18.75H1230c-13.75,0-25-8.44-25-18.75S1216.25,915,1230,915h130C1373.75,915,1385,923.44,1385,933.75Z" transform="translate(0 742.86)"/><path class="cls-11" d="M2235.83,963.63h-360a27.52,27.52,0,0,1-27.5-27.5V930.6a27.53,27.53,0,0,1,27.5-27.5h360a27.53,27.53,0,0,1,27.5,27.5v5.53A27.52,27.52,0,0,1,2235.83,963.63Zm-360-55.53a22.52,22.52,0,0,0-22.5,22.5v5.53a22.52,22.52,0,0,0,22.5,22.5h360a22.52,22.52,0,0,0,22.5-22.5V930.6a22.52,22.52,0,0,0-22.5-22.5Z" transform="translate(0 742.86)"/><path class="cls-12" d="M2229.22,944.11a14.11,14.11,0,1,1,14.11-14.1A14.12,14.12,0,0,1,2229.22,944.11Zm0-23.21a9.11,9.11,0,1,0,9.11,9.11A9.11,9.11,0,0,0,2229.22,920.9Z" transform="translate(0 742.86)"/><path class="cls-12" d="M2242.35,950.19a2.49,2.49,0,0,1-2-1l-6.42-8.34a2.5,2.5,0,0,1,4-3l6.41,8.34a2.5,2.5,0,0,1-.46,3.51A2.48,2.48,0,0,1,2242.35,950.19Z" transform="translate(0 742.86)"/><path class="cls-13" d="M490,1194.05v791.3c.05,27.45,29.9,49.9,66.3,49.9H1556.6c112.45-36.3,207.1-95.75,240.45-176.35,15.35-36.9,17.75-78.2,3.2-123.75-49-153-237-257.6-426.65-302.5-47.7-11.3-108-16.5-134.65-52.5-30-40.5-12.2-103.85-20.15-148.25-52.65-293.8-544.8-235.5-725.15-48.35C493.65,1183.55,492.4,1187.2,490,1194.05Z" transform="translate(0 742.86)"/><path class="cls-11" d="M490,1655.5v329.85l47.3-6.75,9.7-1.4,807.45-115.35c-81.5-13.55-161.65-61.65-237.1-115.85-25.15-18-49.8-36.85-73.8-55.2-92.2-70.6-174.95-135.75-241.4-135.75-82.4,0-186.3,40.5-255.15,72.3C522.9,1638.5,503.1,1648.6,490,1655.5Z" transform="translate(0 742.86)"/><path class="cls-14" d="M490,1831.1v154.25c.05,27.45,29.9,49.9,66.3,49.9H1556.6c112.45-36.3,207.1-95.75,240.45-176.35-155-75.8-354.5-192.25-455.5-229.6-97.15-35.9-199.75,13.8-298,61.5-.15.1-.35.15-.5.25-51.9,25.2-102.5,49.85-150.5,61C779.4,1778.4,565.3,1817.55,490,1831.1Z" transform="translate(0 742.86)"/><path class="cls-15" d="M1170.94,1376.31c82.51,14.46,180.28,8.16,263.91,2.29,45.31-3.18,127.64-1.49,165.49-26.29-62.09-18.36-133.78,2.6-193.11-18.75,31.9-41.06,52.78-67.09-12.13-81.38-51.71-11.39-153.87-18.63-195.44,21.74,14.18,12.11,36.69,13.4,49.5,26.83-51.42,40.67-154.19-12-201,33.22C1068.78,1359,1170.94,1376.31,1170.94,1376.31Z" transform="translate(0 742.86)"/><path class="cls-16" d="M609.51,1379.41c29.51,11,64.88,9.07,95.79,10.52,53.8,2.54,107.61,4.43,161.18,10.18,41.4,4.46,82.43,12.07,124.19,10.47-13.64-3.9-26.51-10.06-40.13-13.92-14.44-4.11-39.93-.33-52.22-7.38-16.47-9.46-13.26-33.62-17.94-50.54-7.37-26.62-24.46-60.57-56-62.64-41.74-2.74-59.42,52.37-99.26,59.32-27.31,4.77-46.43-13.17-72,2.65-30.36,18.78-60,20.94-95.24,31.34,16.67-.48,30.74,3.26,45.9,8.57Z" transform="translate(0 742.86)"/><path class="cls-17" d="M2571.54,1233.12a17.46,17.46,0,0,0-17.46-17.46H1786.6a17.46,17.46,0,0,0-17.45,17.46V1715a17.46,17.46,0,0,0,17.45,17.47h767.48a17.46,17.46,0,0,0,17.46-17.47Z" transform="translate(0 742.86)"/><path class="cls-18" d="M2588.26,1233.12a17.46,17.46,0,0,0-17.46-17.46H1803.32a17.46,17.46,0,0,0-17.46,17.46V1715a17.47,17.47,0,0,0,17.46,17.47H2570.8a17.47,17.47,0,0,0,17.46-17.47Z" transform="translate(0 742.86)"/><path class="cls-19" d="M2549.86,1267.18a16.07,16.07,0,0,0-15.81-16.32H1839.31a16.07,16.07,0,0,0-15.8,16.32V1717.7a16.07,16.07,0,0,0,15.8,16.33h694.74a16.08,16.08,0,0,0,15.81-16.33Z" transform="translate(0 742.86)"/><path class="cls-20" d="M1785.86,1666.11V1715a17.47,17.47,0,0,0,17.46,17.47H2570.8a17.47,17.47,0,0,0,17.46-17.47v-48.88Z" transform="translate(0 742.86)"/><path class="cls-21" d="M2063.32,1850.1c-46.35-1.7-18-77.72,16.74-117.64h158.36c-34.76,39.92-63.09,107.09-16.74,108.8H2293a7.83,7.83,0,0,1,7.83,7.82v1C2273.81,1850.67,2100.4,1851.46,2063.32,1850.1Z" transform="translate(0 742.86)"/><path class="cls-18" d="M2080,1850.1c-46.34-1.7-18-77.72,16.75-117.64h158.36c-34.76,39.92-63.09,107.09-16.75,108.8h71.35a7.82,7.82,0,0,1,7.82,7.82v1C2290.53,1850.67,2117.11,1851.46,2080,1850.1Z" transform="translate(0 742.86)"/><rect class="cls-22" x="2070.39" y="2065.79" width="404.66" height="143.97"/><rect class="cls-22" x="1886.75" y="2065.79" width="130.25" height="276.27"/><rect class="cls-22" x="2070.39" y="2255.93" width="116.67" height="53.63"/><rect class="cls-22" x="2240.45" y="2255.93" width="116.66" height="53.63"/><rect class="cls-23" x="2449.51" y="2240.32" width="773.94" height="20" transform="translate(171.84 5444.56) rotate(-81.04)"/><path class="cls-23" d="M2219.16,2624.63l9.55-84.81-74.19-14.58L2139.14,2565l-76.85,51.67-5.13,9.53a5.21,5.21,0,0,0,4.59,7.69h147A10.43,10.43,0,0,0,2219.16,2624.63Z" transform="translate(0 742.86)"/><path class="cls-23" d="M2525.22,2624.63l9.56-84.81-74.2-14.58L2445.2,2565l-76.85,51.67-5.13,9.53a5.22,5.22,0,0,0,4.59,7.69h147A10.43,10.43,0,0,0,2525.22,2624.63Z" transform="translate(0 742.86)"/><path class="cls-24" d="M2740.59,1355.52c-18.27-30.67-4-112.62,0-129.85,2.93-34.44-135.15,29.15-135.15,53s-2.65,51.68,0,80.83S2745.89,1384.67,2740.59,1355.52Z" transform="translate(0 742.86)"/><path class="cls-17" d="M2546.1,2559.7l-102-30.5c25-161.19,62-460,77.16-531.26l164.28,84.43Z" transform="translate(0 742.86)"/><path class="cls-21" d="M2234.74,2559,2138,2536.51c38.43-159,16.45-450.93,49-516.07,34.44-68.89,107.42-65.64,169.59-74.2,106-14.57,436.15-5.21,465.05,0,18.55,92.75-21.13,233.92-160.32,218.62-15.08-1.66-310-33.57-329.91-39.75Z" transform="translate(0 742.86)"/><path class="cls-18" d="M2865.42,1429.52c-9.51-14.55-82.68-90.08-135.15-102-24.41,21.24-76.88,33.18-124.46,0-24.41,6.64-110,35.78-151.13,102-29.46,47.49-84.27,223.79-78.17,303.41,2.64,34.45,29.15,112.11,86.12,112.11-8,9.79-21.19,68.08-23.85,95.91,163,79.49,306.06,80.82,388.21,37.09l10.6-104.67c91.42,17.23,84.79-134.3,84.79-163C2922.38,1674.58,2903.46,1487.82,2865.42,1429.52Z" transform="translate(0 742.86)"/><path class="cls-25" d="M2837.59,1873.37c5.3-95.39-2.65-261-34.45-368.33,53,143.1,51.61,251.62,51.61,369.54C2850.3,1874.58,2842,1874.7,2837.59,1873.37Z" transform="translate(0 742.86)"/><path class="cls-17" d="M2547.89,1159.91c-7.85.75-15.59,3-21,6.39,0,.39.09.9.18,1.52a59.47,59.47,0,0,0,1.61,6.89,62.31,62.31,0,0,0,2.48,7.12,20,20,0,0,0,1.19,2.44,5.08,5.08,0,0,0,.53.77h0c3.44,2.5,9.81,3.52,17.09,3.06a54.26,54.26,0,0,0,18.79-4.5s0-.09.06-.15a14.82,14.82,0,0,0,.59-2.43,51.77,51.77,0,0,0,.48-8,52.44,52.44,0,0,0-.64-8,13.8,13.8,0,0,0-.63-2.47,1.8,1.8,0,0,1-.1-.24C2563.7,1160,2556,1159.12,2547.89,1159.91Zm20.75,23.87,0,0A.11.11,0,0,0,2568.64,1183.78Zm-.24-21.71h0S2568.4,1162.07,2568.4,1162.07Zm3.09-4.79a4.33,4.33,0,0,1,1.59,1.43,7.48,7.48,0,0,1,.79,1.54,18.59,18.59,0,0,1,.94,3.54,57.1,57.1,0,0,1,.73,9,56.15,56.15,0,0,1-.56,9,19.05,19.05,0,0,1-.9,3.61,5.61,5.61,0,0,1-2.5,3.11c-5.63,2.83-13.7,4.81-21.42,5.3s-15.64-.41-20.7-4.09a8,8,0,0,1-2-2.41,25.46,25.46,0,0,1-1.52-3.09,71.48,71.48,0,0,1-2.71-7.76,65,65,0,0,1-1.76-7.6,17.5,17.5,0,0,1-.26-3,7,7,0,0,1,.18-1.49,3.72,3.72,0,0,1,1.42-2.11c6.54-4.54,15.81-7.19,24.68-8S2565.4,1154.21,2571.49,1157.28Z" transform="translate(0 742.86)"/><path class="cls-24" d="M2581.88,1279.8c-33.13-26.49-39.75-103.34-27.83-164.29,18.55-43.72,97.77-66,160-31.6,49.82,27.56,39.3,103.34,27.82,137.79-3.53,5.3-17,20.94-42.4,41.07C2667.72,1288,2606,1299.13,2581.88,1279.8Z" transform="translate(0 742.86)"/><path class="cls-25" d="M2453.36,1856.15c46.37-35.77,106-189.47,88.77-337.86,41.34,121.9-13,356-44.39,449.16-23.32-10.6-44.38-17.89-59.62-28.49Z" transform="translate(0 742.86)"/><path class="cls-17" d="M2669.32,1267.88c-37.1-13.25-84.79-83.47-84.79-129.84-15-6.19-51.68-5.3-46.38-49,3.67-30.27,51.67-60.94,90.1-68.89s108.64,0,102,43.72c68.9,8,29.15,163,15.9,189.47S2706.42,1281.13,2669.32,1267.88Z" transform="translate(0 742.86)"/><path class="cls-24" d="M2620.26,1173.19c-3.88-10.45-21.52-21.72-39,6.51-4.48,10.86-14,37.57,0,44.51C2598.74,1232.9,2628.33,1194.9,2620.26,1173.19Z" transform="translate(0 742.86)"/><path class="cls-24" d="M2375.19,1731.61c-17.23,10.6-56.64,17.22-83.47,17.22-18.53,0-37.81-.38-38.57-.07-14.2-8-46-20.55-60.8-7.88-18.55,15.9-62.28,60.95-49,72.88s38.42,5.29,53,0,58.3,6.62,71.55,13.24,139.11,53,166.94,42.4C2457.07,1860.92,2404.78,1776.66,2375.19,1731.61Z" transform="translate(0 742.86)"/><path class="cls-26" d="M2461.31,1849.53c-2.65-19.88-43.73-87.45-84.8-124.54-3.53,0-24.39,6.75-17.22,14.57,29.15,31.79,62.27,112.61,62.27,129.84C2421.56,1882.45,2464,1869.4,2461.31,1849.53Z" transform="translate(0 742.86)"/><path class="cls-17" d="M1645.17,1850.85H3205.55a5.22,5.22,0,0,1,5.22,5.22v8.11a5.22,5.22,0,0,1-5.22,5.22H1645.17a5.22,5.22,0,0,1-5.22-5.22v-8.11A5.22,5.22,0,0,1,1645.17,1850.85Z" transform="translate(0 742.86)"/><rect class="cls-23" x="1251.61" y="2240.32" width="773.94" height="20" transform="translate(-839.49 4261.28) rotate(-81.04)"/><rect class="cls-23" x="2002.2" y="1863.35" width="20" height="773.94" transform="translate(-326.01 1083.82) rotate(-8.96)"/><rect class="cls-23" x="3200.1" y="1863.35" width="20" height="773.94" transform="translate(-311.38 1270.44) rotate(-8.96)"/><path class="cls-17" d="M2976,1482.52H2714a52.16,52.16,0,0,0-51.41,43.3L2628.25,1725H2994.7l32.64-181A52.17,52.17,0,0,0,2976,1482.52Z" transform="translate(0 742.86)"/><path class="cls-23" d="M2895.34,2178.84a10.53,10.53,0,0,1-1.66-.14,10,10,0,0,1-8.21-11.51l84.79-507.46A10,10,0,0,1,2990,1663l-84.79,507.46A10,10,0,0,1,2895.34,2178.84Z" transform="translate(0 742.86)"/><path class="cls-23" d="M2584,2178.84a10.43,10.43,0,0,1-1.66-.14,10,10,0,0,1-8.21-11.51l84.79-507.46a10,10,0,0,1,19.73,3.3l-84.8,507.46A10,10,0,0,1,2584,2178.84Z" transform="translate(0 742.86)"/><path class="cls-23" d="M2953.61,2643.89a10,10,0,0,1-9.83-8.23l-82.14-455.78a10,10,0,0,1,19.69-3.54l82.14,455.78a10,10,0,0,1-8.07,11.62A10.9,10.9,0,0,1,2953.61,2643.89Z" transform="translate(0 742.86)"/><path class="cls-23" d="M2625,2643.89a10,10,0,0,1-9.83-8.23l-82.15-455.78a10,10,0,0,1,19.69-3.54l82.14,455.78a10,10,0,0,1-8.07,11.62A10.87,10.87,0,0,1,2625,2643.89Z" transform="translate(0 742.86)"/><path class="cls-23" d="M2300.44,2643.89a10.87,10.87,0,0,1-1.78-.15,10,10,0,0,1-8.07-11.62l82.14-455.78a10,10,0,0,1,19.69,3.54l-82.14,455.78A10,10,0,0,1,2300.44,2643.89Z" transform="translate(0 742.86)"/><rect class="cls-17" x="2341.5" y="2905.08" width="585.62" height="23.85" rx="10.43"/></svg>